:SAMPLES-PER-SECOND 30
:FULLY-SPECIFIED
:DEGREES
1
root  -66.2175 41.5871 -0.631144 115.375 87.7567 116.408
RightUpLeg  2.24027 -9.21447 -6.45489
RightLeg  6.82991 -5.43165 3.43584
RightFoot  -5.13012 0.0829972 -2.20179
RightToes  -2.9104e-010 0 -3.6325e-017
Spine  3.99099 0.395894 -1.54435
Spine1  1.42068 0.382951 0.587977
HEad  -1.57171 4.21201 0.257936
LeftShoulder1  1.78734 -5.08784 -13.8466
LeftArm  -19.6894 12.322 -5.24428
LeftForeArm  8.15249 -1.18108 -0.380924
LeftHand  -0.244104 0.0205437 5.32207
RightShoulder  0.812596 1.22462 9.89386
RightArm  -25.5099 -3.82183 4.49103
RightForeArm  -4.0032 2.46597 1.81121
RightHand  -1.07075 3.01596 -14.9499
LeftUpLeg  1.43158 4.26576 0.879077
LeftLeg  0.304254 19.1536 -4.64558
LeftFoot  -0.140556 -0.060262 0.657384
LeftToes  1.09107e-011 -5.80176e-011 5.60941e-012
2
root  -66.2129 41.5871 -0.627369 116.109 87.7567 117.152
RightUpLeg  2.2907 -9.19756 -6.4332
RightLeg  6.76612 -5.47074 3.43412
RightFoot  -5.11346 0.0826927 -2.19705
RightToes  -2.9104e-010 0 -3.6325e-017
Spine  4.10501 0.386228 -1.55014
Spine1  1.30315 0.369788 0.592644
HEad  -1.46951 4.22259 0.288113
LeftShoulder1  1.78975 -5.09575 -13.8165
LeftArm  -19.6777 12.3715 -5.27865
LeftForeArm  8.24488 -1.20413 -0.381434
LeftHand  -0.244104 0.0205437 5.32207
RightShoulder  0.802857 1.18247 9.83441
RightArm  -25.5428 -3.87638 4.55038
RightForeArm  -3.67379 2.46001 1.78252
RightHand  -1.04956 3.03698 -14.6258
LeftUpLeg  1.46979 4.35613 0.945277
LeftLeg  0.271755 19.0218 -4.73478
LeftFoot  -0.140612 -0.064271 0.719692
LeftToes  1.09107e-011 -5.80176e-011 5.60941e-012
3
root  -66.2068 41.5871 -0.621194 116.53 87.757 117.556
RightUpLeg  2.30615 -9.17993 -6.41125
RightLeg  6.71988 -5.50816 3.42713
RightFoot  -5.10266 0.0808916 -2.16903
RightToes  -2.9104e-010 0 -3.6325e-017
Spine  4.2664 0.378391 -1.60993
Spine1  1.10968 0.346918 0.648114
HEad  -1.3056 4.28341 0.336081
LeftShoulder1  1.80148 -5.14919 -13.837
LeftArm  -19.5698 12.5099 -5.23679
LeftForeArm  8.28288 -1.27128 -0.415638
LeftHand  -0.244104 0.0205437 5.32207
RightShoulder  0.792141 1.14648 9.72517
RightArm  -25.6475 -3.9682 4.62912
RightForeArm  -3.12404 2.44111 1.71047
RightHand  -1.01508 3.03205 -14.1661
LeftUpLeg  1.4764 4.43649 1.00339
LeftLeg  0.254318 18.9 -4.81377
LeftFoot  -0.140848 -0.0680576 0.778545
LeftToes  1.09107e-011 -5.80176e-011 5.60941e-012
4
root  -66.1995 41.5871 -0.614406 116.434 87.7658 117.435
RightUpLeg  2.28861 -9.15873 -6.38399
RightLeg  6.71729 -5.53584 3.41615
RightFoot  -5.11082 0.0801339 -2.15724
RightToes  -2.9104e-010 0 -3.6325e-017
Spine  4.37083 0.384723 -1.69597
Spine1  0.997275 0.331486 0.742876
HEad  -1.1625 4.31459 0.385381
LeftShoulder1  1.8135 -5.18875 -13.8853
LeftArm  -19.4471 12.5978 -5.17927
LeftForeArm  8.22581 -1.28979 -0.457351
LeftHand  -0.244104 0.0205437 5.32207
RightShoulder  0.772493 1.05123 9.64081
RightArm  -25.8107 -3.95454 4.68463
RightForeArm  -2.38716 2.39515 1.61088
RightHand  -1.0018 3.1398 -13.8168
LeftUpLeg  1.45042 4.44468 1.02113
LeftLeg  0.275634 18.8845 -4.80586
LeftFoot  -0.147907 -0.0680532 0.778476
LeftToes  1.09107e-011 -5.80176e-011 5.60941e-012
5
root  -66.1883 41.5871 -0.607025 116.318 87.8053 117.321
RightUpLeg  2.31857 -9.11806 -6.32858
RightLeg  6.68613 -5.55402 3.41067
RightFoot  -5.11257 0.0810286 -2.17116
RightToes  -2.9104e-010 0 -3.6325e-017
Spine  4.43976 0.40189 -1.70345
Spine1  0.996694 0.34453 0.753447
HEad  -1.09041 4.21748 0.413846
LeftShoulder1  1.79972 -5.14355 -13.8293
LeftArm  -19.4372 12.5311 -5.26056
LeftForeArm  8.19952 -1.19669 -0.46062
LeftHand  -0.244104 0.0205437 5.32207
RightShoulder  0.739881 0.861581 9.62861
RightArm  -25.9042 -3.8292 4.71279
RightForeArm  -1.70965 2.34696 1.54456
RightHand  -1.00999 3.33775 -13.624
LeftUpLeg  1.45557 4.45445 1.05961
LeftLeg  0.313673 18.8989 -4.76923
LeftFoot  -0.176882 -0.0653843 0.736996
LeftToes  1.09107e-011 -5.80176e-011 5.60941e-012
6
root  -66.1776 41.5871 -0.600806 115.417 87.869 116.426
RightUpLeg  2.35226 -9.07012 -6.26613
RightLeg  6.63429 -5.53434 3.40955
RightFoot  -5.09048 0.0808288 -2.16805
RightToes  -2.9104e-010 0 -3.6325e-017
Spine  4.53274 0.425465 -1.59026
Spine1  0.988627 0.400538 0.58076
HEad  -1.07932 4.02618 0.399547
LeftShoulder1  1.76304 -5.04528 -13.6201
LeftArm  -19.5497 12.3867 -5.48302
LeftForeArm  8.27628 -1.0373 -0.415665
LeftHand  -0.244104 0.0205437 5.32207
RightShoulder  0.718091 0.716437 9.70142
RightArm  -25.8224 -3.7732 4.67674
RightForeArm  -1.48546 2.34521 1.55862
RightHand  -1.01469 3.42393 -13.5581
LeftUpLeg  1.47931 4.51159 1.1289
LeftLeg  0.332454 18.9056 -4.77859
LeftFoot  -0.206749 -0.0634408 0.70679
LeftToes  1.09107e-011 -5.80176e-011 5.60941e-012
7
root  -66.1746 41.5871 -0.597849 112.309 87.9155 113.239
RightUpLeg  2.22272 -9.04721 -6.24493
RightLeg  6.68574 -5.45713 3.39132
RightFoot  -5.08359 0.0799108 -2.15377
RightToes  -2.9104e-010 0 -3.6325e-017
Spine  4.58308 0.461056 -1.47519
Spine1  0.917589 0.48422 0.338424
HEad  -1.06542 3.9002 0.368638
LeftShoulder1  1.73581 -4.98784 -13.4209
LeftArm  -19.7223 12.2821 -5.65957
LeftForeArm  8.41579 -0.877577 -0.333391
LeftHand  -0.244104 0.0205437 5.32207
RightShoulder  0.724477 0.730002 9.80866
RightArm  -25.6983 -3.85509 4.58444
RightForeArm  -1.55159 2.37732 1.59343
RightHand  -1.00789 3.37881 -13.5399
LeftUpLeg  1.42403 4.54012 1.14099
LeftLeg  0.306075 18.9983 -4.82051
LeftFoot  -0.20172 -0.0635425 0.708371
LeftToes  1.09107e-011 -5.80176e-011 5.60941e-012
8
root  -66.1749 41.5871 -0.597162 107.52 87.9028 108.255
RightUpLeg  1.88756 -9.06261 -6.27752
RightLeg  6.87767 -5.3298 3.3497
RightFoot  -5.13639 0.0812177 -2.1741
RightToes  -2.9104e-010 0 -3.6325e-017
Spine  4.44624 0.508936 -1.51912
Spine1  0.897957 0.549636 0.268825
HEad  -1.02672 3.92147 0.36204
LeftShoulder1  1.74456 -5.01278 -13.468
LeftArm  -19.9012 12.2289 -5.60182
LeftForeArm  8.54961 -0.747244 -0.23092
LeftHand  -0.244104 0.0205437 5.32207
RightShoulder  0.736838 0.798631 9.82548
RightArm  -25.7803 -3.88481 4.57746
RightForeArm  -1.3445 2.35136 1.54441
RightHand  -1.00393 3.37196 -13.494
LeftUpLeg  1.24877 4.45711 1.03417
LeftLeg  0.242302 19.2432 -4.82902
LeftFoot  -0.165926 -0.0632827 0.704333
LeftToes  1.09107e-011 -5.80176e-011 5.60941e-012
9
root  -66.1661 41.5871 -0.597248 103.905 87.8547 104.432
RightUpLeg  1.56967 -9.0949 -6.32744
RightLeg  7.04898 -5.19725 3.32191
RightFoot  -5.21462 0.0824178 -2.19625
RightToes  -2.9104e-010 0 -3.6325e-017
Spine  4.17019 0.545565 -1.68914
Spine1  1.00861 0.563376 0.412542
HEad  -1.01784 3.96634 0.344319
LeftShoulder1  1.78369 -5.09288 -13.7587
LeftArm  -20.0016 12.2134 -5.33346
LeftForeArm  8.59313 -0.693665 -0.160104
LeftHand  -0.244104 0.0205437 5.32207
RightShoulder  0.726491 0.769352 9.68563
RightArm  -26.0459 -3.73163 4.75074
RightForeArm  -0.892826 2.24204 1.43311
RightHand  -1.0054 3.42293 -13.4391
LeftUpLeg  1.05341 4.31581 0.88527
LeftLeg  0.207531 19.5184 -4.7772
LeftFoot  -0.156147 -0.0605219 0.661424
LeftToes  1.09107e-011 -5.80176e-011 5.60941e-012
10
root  -66.1454 41.5872 -0.600266 103.58 87.852 104.054
RightUpLeg  1.55467 -9.11081 -6.34797
RightLeg  7.03254 -5.15225 3.3435
RightFoot  -5.24859 0.0791387 -2.16154
RightToes  -2.9104e-010 0 -3.6325e-017
Spine  4.04216 0.547419 -1.75524
Spine1  1.14556 0.544123 0.525268
HEad  -1.06458 3.8942 0.241242
LeftShoulder1  1.82326 -5.1909 -14.0027
LeftArm  -19.9421 12.2561 -5.09219
LeftForeArm  8.47284 -0.758465 -0.179749
LeftHand  -0.244104 0.0205437 5.32207
RightShoulder  0.701404 0.659885 9.51225
RightArm  -26.1841 -3.55585 4.95078
RightForeArm  -0.845971 2.16908 1.40049
RightHand  -1.00819 3.43599 -13.4563
LeftUpLeg  0.993125 4.25464 0.837651
LeftLeg  0.278544 19.6065 -4.69467
LeftFoot  -0.213587 -0.0571542 0.609084
LeftToes  1.09107e-011 -5.80176e-011 5.60941e-012
